<?xml version="1.0" encoding="utf-8"?>
<!-- Generator: Adobe Illustrator 24.0.1, SVG Export Plug-In . SVG Version: 6.00 Build 0)  -->
<svg version="1.1" baseProfile="basic" id="Layer_1"
	 xmlns="http://www.w3.org/2000/svg" xmlns:xlink="http://www.w3.org/1999/xlink" x="0px" y="0px" viewBox="0 0 241 246"
	 xml:space="preserve">
<style type="text/css">
	.st0{fill:#0B162C;}
	.st1{fill:#D6AB5E;}
	.st2{fill:#D9B85E;}
	.st3{fill:#D8B75D;}
	.st4{fill:#D6B55D;}
	.st5{fill:#D5B45C;}
	.st6{fill:#D3B25B;}
	.st7{fill:#D2B15A;}
	.st8{fill:#D1B059;}
	.st9{fill:#D0AE58;}
	.st10{fill:#CEAD57;}
	.st11{fill:#CDAC56;}
	.st12{fill:#CCAA55;}
	.st13{fill:#CBA955;}
	.st14{fill:#CAA854;}
	.st15{fill:#C9A753;}
	.st16{fill:#C7A652;}
	.st17{fill:#C6A451;}
	.st18{fill:#C5A350;}
	.st19{fill:#C4A24F;}
	.st20{fill:#C3A14F;}
	.st21{fill:#C29F4E;}
	.st22{fill:#C19E4D;}
	.st23{fill:#BF9D4C;}
	.st24{fill:#BE9C4B;}
	.st25{fill:#BD9B4B;}
	.st26{fill:#BC994A;}
	.st27{fill:#BB9849;}
	.st28{fill:#BA9748;}
	.st29{fill:#B89647;}
	.st30{fill:#B79446;}
	.st31{fill:#B69346;}
	.st32{fill:#B59245;}
	.st33{fill:#B49144;}
	.st34{fill:#B39043;}
	.st35{fill:#B18E43;}
	.st36{fill:#B08D42;}
	.st37{fill:#AF8C41;}
	.st38{fill:#AE8B40;}
	.st39{fill:#AD8A3F;}
	.st40{fill:#AC893F;}
	.st41{fill:#AB883E;}
	.st42{fill:#AA863D;}
	.st43{fill:#A8853C;}
	.st44{fill:#A7843C;}
	.st45{fill:#A6833B;}
	.st46{fill:#A5823A;}
	.st47{fill:#A4813A;}
	.st48{fill:#A38039;}
	.st49{fill:#A27E38;}
	.st50{fill:#A17D38;}
	.st51{fill:#A07C37;}
	.st52{fill:#9E7B36;}
	.st53{fill:#9D7A36;}
	.st54{fill:#9C7935;}
	.st55{fill:#9B7834;}
	.st56{fill:#9A7734;}
	.st57{fill:#997633;}
	.st58{fill:#987432;}
	.st59{fill:#977332;}
	.st60{fill:#967231;}
	.st61{fill:#957130;}
	.st62{fill:#947030;}
	.st63{fill:#926F2F;}
	.st64{fill:#916E2E;}
	.st65{fill:#906D2E;}
	.st66{fill:#8F6C2D;}
	.st67{fill:#8E6B2C;}
	.st68{fill:#8D6A2C;}
	.st69{fill:#8C692B;}
	.st70{fill:#8B682B;}
	.st71{fill:#8A672A;}
	.st72{fill:#896629;}
	.st73{fill:#886529;}
	.st74{fill:#876428;}
	.st75{fill:#866328;}
	.st76{fill:#856227;}
	.st77{fill:#846127;}
	.st78{fill:#836026;}
	.st79{fill:#825F26;}
	.st80{fill:#815E25;}
	.st81{fill:#805D25;}
	.st82{fill:#7E5C24;}
	.st83{fill:#7D5B24;}
	.st84{fill:#7C5A23;}
	.st85{fill:none;}
</style>
<rect class="st0" width="241" height="246"/>
<g>
	<path class="st1" d="M35.1,183.4h4c2.7,0,4,1.5,4,4.2v8.5c0,2.7-1.3,4.2-4,4.2h-4V183.4z M39.1,197.9c0.8,0,1.3-0.4,1.3-1.6v-8.9
		c0-1.2-0.5-1.6-1.3-1.6h-1.3v12L39.1,197.9L39.1,197.9z"/>
	<polygon class="st1" points="44.8,183.4 47.5,183.4 47.5,190.3 50.3,190.3 50.3,183.4 53,183.4 53,200.3 50.3,200.3 50.3,192.7 
		47.5,192.7 47.5,200.3 44.8,200.3 	"/>
	<path class="st1" d="M57.1,183.4h3.6l2.7,16.9h-2.7l-0.5-3.3l0,0h-3l-0.5,3.3h-2.5L57.1,183.4z M59.8,194.7l-1.2-8.3l0,0l-1.2,8.3
		H59.8z"/>
	<path class="st1" d="M64.7,183.4h4c2.7,0,3.9,1.3,3.9,3.9v0.7c0,1.7-0.5,2.8-1.7,3.3l0,0c1.4,0.5,2,1.7,2,3.5v1.4c0,2.6-1.4,4-4,4
		h-4.2V183.4z M68.3,190.3c1,0,1.6-0.4,1.6-1.8v-0.9c0-1.2-0.4-1.7-1.3-1.7h-1.3v4.5L68.3,190.3L68.3,190.3z M68.8,197.9
		c0.9,0,1.4-0.4,1.4-1.7v-1.5c0-1.6-0.5-2-1.7-2h-1.2v5.2H68.8z"/>
	<rect x="74.3" y="183.4" class="st1" width="2.6" height="16.9"/>
	<path class="st1" d="M82.8,183.4h4c2.7,0,4,1.5,4,4.2v8.5c0,2.7-1.3,4.2-4,4.2h-4V183.4z M86.8,197.9c0.8,0,1.3-0.4,1.3-1.6v-8.9
		c0-1.2-0.5-1.6-1.3-1.6h-1.3v12L86.8,197.9L86.8,197.9z"/>
	<polygon class="st1" points="92.7,183.4 99.8,183.4 99.8,185.8 95.3,185.8 95.3,190.3 98.8,190.3 98.8,192.7 95.3,192.7 
		95.3,197.9 99.8,197.9 99.8,200.3 92.7,200.3 	"/>
	<polygon class="st1" points="100.7,183.4 103.3,183.4 105,196.5 105.2,196.5 106.8,183.4 109.3,183.4 106.8,200.3 103.3,200.3 	"/>
	<polygon class="st1" points="110.5,183.4 117.8,183.4 117.8,185.8 113.2,185.8 113.2,190.3 116.8,190.3 116.8,192.7 113.2,192.7 
		113.2,197.9 117.8,197.9 117.8,200.3 110.5,200.3 	"/>
	<polygon class="st1" points="119.3,183.4 122,183.4 122,197.9 126.3,197.9 126.3,200.3 119.3,200.3 	"/>
	<path class="st1" d="M127.3,196.3v-8.9c0-2.7,1.4-4.2,4-4.2s4,1.5,4,4.2v8.9c0,2.7-1.4,4.2-4,4.2
		C128.8,200.5,127.3,199,127.3,196.3 M132.6,196.4v-9.2c0-1.2-0.5-1.7-1.4-1.7c-0.8,0-1.4,0.5-1.4,1.7v9.2c0,1.2,0.5,1.7,1.4,1.7
		S132.6,197.6,132.6,196.4"/>
	<path class="st1" d="M137.1,183.4h3.9c2.7,0,4,1.5,4,4.2v1.7c0,2.7-1.3,4.2-4,4.2h-1.3v6.9H137v-17H137.1z M141,191
		c0.8,0,1.3-0.4,1.3-1.6v-2c0-1.2-0.5-1.6-1.3-1.6h-1.3v5.2H141z"/>
	<polygon class="st1" points="146.5,183.4 153.6,183.4 153.6,185.8 149,185.8 149,190.3 152.8,190.3 152.8,192.7 149,192.7 
		149,197.9 153.6,197.9 153.6,200.3 146.5,200.3 	"/>
	<path class="st1" d="M155.1,183.4h3.9c2.7,0,3.9,1.3,3.9,3.9v1c0,1.7-0.6,2.8-1.7,3.3l0,0c1.3,0.4,1.8,1.7,1.8,3.6v3
		c0,0.8,0,1.4,0.3,2h-2.7c-0.1-0.4-0.2-0.7-0.2-2.1V195c0-1.6-0.5-2.1-1.7-2.1h-0.9v7.2h-2.7L155.1,183.4L155.1,183.4z M158.8,190.6
		c1,0,1.6-0.4,1.6-1.8v-1.3c0-1.2-0.4-1.7-1.3-1.7h-1.2v4.8H158.8z"/>
	<path class="st1" d="M164.5,196.3v-1h2.5v1.2c0,1.2,0.5,1.6,1.4,1.6c0.8,0,1.4-0.4,1.4-1.7c0-1.4-0.5-2.3-2.3-3.8
		c-2.2-2-2.9-3.3-2.9-5.3c0-2.7,1.4-4.2,4-4.2s3.9,1.5,3.9,4.2v0.7h-2.5v-0.9c0-1.2-0.5-1.7-1.3-1.7c-0.8,0-1.3,0.5-1.3,1.6
		c0,1.2,0.6,2.1,2.3,3.6c2.2,2,2.9,3.3,2.9,5.4c0,2.7-1.4,4.3-4,4.3C165.8,200.5,164.5,199,164.5,196.3"/>
	<path class="st1" d="M179.8,183.4h3.6l2.7,16.9h-2.7l-0.5-3.3l0,0h-3l-0.5,3.3h-2.5L179.8,183.4z M182.6,194.7l-1.2-8.3l0,0
		l-1.2,8.3H182.6z"/>
	<polygon class="st1" points="187.4,183.4 190.6,183.4 193.3,193.5 193.3,193.5 193.3,183.4 195.6,183.4 195.6,200.3 193,200.3 
		189.8,188 189.8,188 189.8,200.3 187.4,200.3 	"/>
	<path class="st1" d="M197.6,183.4h4c2.6,0,4,1.5,4,4.2v8.5c0,2.7-1.3,4.2-4,4.2h-4V183.4z M201.6,197.9c0.8,0,1.3-0.4,1.3-1.6v-8.9
		c0-1.2-0.5-1.6-1.3-1.6h-1.3v12L201.6,197.9L201.6,197.9z"/>
	<path class="st1" d="M16.4,205h3.9c2.6,0,4,1.5,4,4.2v1.7c0,2.7-1.3,4.2-4,4.2h-1.3v6.9h-2.6C16.3,222,16.3,205,16.4,205z
		 M20.3,212.6c0.8,0,1.3-0.4,1.3-1.6v-2c0-1.2-0.5-1.6-1.3-1.6h-1.3v5.2C18.9,212.6,20.3,212.6,20.3,212.6z"/>
	<path class="st1" d="M25.7,205h3.9c2.7,0,3.9,1.3,3.9,3.9v1c0,1.7-0.6,2.8-1.7,3.3l0,0c1.3,0.4,1.8,1.7,1.8,3.6v3
		c0,0.8,0,1.4,0.3,2h-2.7c-0.1-0.4-0.2-0.7-0.2-2.1v-3.1c0-1.6-0.5-2.1-1.7-2.1h-0.9v7.2h-2.7V205z M29.3,212.2c1,0,1.6-0.4,1.6-1.8
		v-1.3c0-1.2-0.4-1.7-1.3-1.7h-1.2v4.8H29.3z"/>
	<path class="st1" d="M35.2,217.9V209c0-2.7,1.4-4.2,4-4.2s4,1.5,4,4.2v8.9c0,2.7-1.4,4.2-4,4.2C36.7,222.1,35.2,220.6,35.2,217.9
		 M40.6,218v-9.2c0-1.2-0.5-1.7-1.4-1.7c-0.8,0-1.4,0.5-1.4,1.7v9.2c0,1.2,0.5,1.7,1.4,1.7C40.1,219.7,40.6,219.2,40.6,218"/>
	<path class="st1" d="M45.1,205H49c2.6,0,4,1.5,4,4.2v1.7c0,2.7-1.3,4.2-4,4.2h-1.3v6.9h-2.6V205z M49,212.6c0.8,0,1.3-0.4,1.3-1.6
		v-2c0-1.2-0.5-1.6-1.3-1.6h-1.3v5.2C47.7,212.6,49,212.6,49,212.6z"/>
	<polygon class="st1" points="54.3,205 61.6,205 61.6,207.4 57,207.4 57,211.9 60.7,211.9 60.7,214.3 57,214.3 57,219.5 61.6,219.5 
		61.6,221.9 54.3,221.9 	"/>
	<path class="st1" d="M63.1,205H67c2.7,0,3.9,1.3,3.9,3.9v1c0,1.7-0.6,2.8-1.7,3.3l0,0c1.3,0.4,1.8,1.7,1.8,3.6v3c0,0.8,0,1.4,0.3,2
		h-2.7c-0.1-0.4-0.2-0.7-0.2-2.1v-3.1c0-1.6-0.5-2.1-1.7-2.1h-0.9v7.2h-2.6V205H63.1z M66.7,212.2c1,0,1.6-0.4,1.6-1.8v-1.3
		c0-1.2-0.4-1.7-1.3-1.7h-1.2v4.8H66.7z"/>
	<polygon class="st1" points="74.8,207.4 72.1,207.4 72.1,205 80.3,205 80.3,207.4 77.5,207.4 77.5,221.9 74.8,221.9 	"/>
	<polygon class="st1" points="84,214.7 80.8,205 83.7,205 85.5,211.2 85.5,211.2 87.3,205 89.8,205 86.7,214.7 86.7,221.9 84,221.9 
			"/>
	<polygon class="st1" points="95,205 98.8,205 100.3,217.1 100.5,217.1 102.2,205 106,205 106,221.9 103.5,221.9 103.5,209.1 
		103.3,209.1 101.5,221.9 99.3,221.9 97.3,209.1 97.3,209.1 97.3,221.9 95,221.9 	"/>
	<path class="st1" d="M110,205h3.6l2.7,16.9h-2.6l-0.5-3.3l0,0h-3l-0.5,3.3h-2.5L110,205z M112.8,216.3l-1.2-8.3l0,0l-1.2,8.3H112.8
		z"/>
	<polygon class="st1" points="117.5,205 120.8,205 123.5,215.1 123.5,215.1 123.5,205 125.8,205 125.8,221.9 123.2,221.9 120,209.6 
		120,209.6 120,221.9 117.5,221.9 	"/>
	<path class="st1" d="M129.9,205h3.6l2.7,16.9h-2.6l-0.5-3.3l0,0h-3l-0.5,3.3H127L129.9,205z M132.8,216.3l-1.2-8.3l0,0l-1.2,8.3
		H132.8z"/>
	<path class="st1" d="M137.3,217.9V209c0-2.7,1.3-4.2,4-4.2c2.6,0,4,1.5,4,4.2v1.4h-2.6v-1.6c0-1.2-0.5-1.7-1.4-1.7
		s-1.4,0.5-1.4,1.7v9.2c0,1.2,0.5,1.6,1.4,1.6s1.4-0.4,1.4-1.6v-3.3h-1.3v-2.3h3.8v5.5c0,2.7-1.3,4.2-4,4.2
		C138.5,222.1,137.3,220.6,137.3,217.9"/>
	<polygon class="st1" points="146.9,205 154,205 154,207.4 149.5,207.4 149.5,211.9 153.1,211.9 153.1,214.3 149.5,214.3 
		149.5,219.5 154,219.5 154,221.9 146.9,221.9 	"/>
	<polygon class="st1" points="155.6,205 159.4,205 161,217.1 161.1,217.1 162.9,205 166.5,205 166.5,221.9 164,221.9 164,209.1 
		164,209.1 162.1,221.9 159.9,221.9 158,209.1 158,209.1 158,221.9 155.6,221.9 	"/>
	<polygon class="st1" points="168.5,205 175.8,205 175.8,207.4 171.3,207.4 171.3,211.9 174.9,211.9 174.9,214.3 171.3,214.3 
		171.3,219.5 175.8,219.5 175.8,221.9 168.5,221.9 	"/>
	<polygon class="st1" points="177.4,205 180.6,205 183.3,215.1 183.3,215.1 183.3,205 185.6,205 185.6,221.9 182.9,221.9 
		179.8,209.6 179.6,209.6 179.6,221.9 177.4,221.9 	"/>
	<polygon class="st1" points="189.6,207.4 186.9,207.4 186.9,205 195,205 195,207.4 192.4,207.4 192.4,221.9 189.6,221.9 	"/>
	<polygon class="st1" points="200.3,205 202.9,205 202.9,219.5 207.3,219.5 207.3,221.9 200.3,221.9 	"/>
	<polygon class="st1" points="208.5,205 211.1,205 211.1,219.5 215.5,219.5 215.5,221.9 208.5,221.9 	"/>
	<path class="st1" d="M216.8,205h3.9c2.6,0,4,1.5,4,4.2v1.7c0,2.7-1.3,4.2-4,4.2h-1.3v6.9h-2.7v-17H216.8z M220.6,212.6
		c0.8,0,1.3-0.4,1.3-1.6v-2c0-1.2-0.5-1.6-1.3-1.6h-1.3v5.2C219.4,212.6,220.6,212.6,220.6,212.6z"/>
</g>
<g>
	<g>
		<polygon class="st2" points="101.8,36.7 101.8,36.7 113.7,67.8 132.9,61.4 		"/>
		<polygon class="st2" points="132.9,61.4 113.7,67.8 114,68.6 133.4,61.9 		"/>
		<polygon class="st3" points="133.4,61.9 114,68.6 114.3,69.1 134.1,62.5 		"/>
		<polygon class="st4" points="134.1,62.5 114.3,69.1 114.5,69.9 134.7,63 		"/>
		<polygon class="st5" points="134.7,63 114.5,69.9 114.8,70.4 135.4,63.5 		"/>
		<polygon class="st6" points="135.4,63.5 114.8,70.4 115,71.1 135.9,64 		"/>
		<polygon class="st7" points="135.9,64 115,71.1 115.3,71.6 136.7,64.5 		"/>
		<polygon class="st8" points="136.7,64.5 115.3,71.6 115.5,72.1 137.2,65 		"/>
		<polygon class="st9" points="137.2,65 115.5,72.1 115.8,72.9 138,65.5 		"/>
		<polygon class="st10" points="138,65.5 115.8,72.9 116,73.4 138.5,66 		"/>
		<polygon class="st11" points="138.5,66 116,73.4 116,74.2 139,66.5 		"/>
		<polygon class="st12" points="139,66.5 116,74.2 116.3,74.7 139.8,67 		"/>
		<polygon class="st13" points="139.8,67 116.3,74.7 116.5,75.5 140.3,67.6 		"/>
		<polygon class="st14" points="140.3,67.6 116.5,75.5 116.8,76 141,68.1 		"/>
		<polygon class="st15" points="141,68.1 116.8,76 117.1,76.7 141.5,68.6 		"/>
		<polygon class="st16" points="141.5,68.6 117.1,76.7 117.3,77.2 142.3,69.1 		"/>
		<polygon class="st17" points="142.3,69.1 117.3,77.2 117.6,78 142.8,69.6 		"/>
		<polygon class="st18" points="142.8,69.6 117.6,78 117.8,78.5 143.6,70.1 		"/>
		<polygon class="st19" points="143.6,70.1 117.8,78.5 118.1,79.3 144.1,70.4 		"/>
		<polygon class="st20" points="144.1,70.4 118.1,79.3 118.3,79.8 144.9,70.9 		"/>
		<polygon class="st21" points="144.9,71.1 144.9,70.9 118.3,79.8 118.6,80.3 144.9,71.6 		"/>
		<polygon class="st22" points="144.9,71.6 118.6,80.3 118.8,81.1 144.9,72.4 		"/>
		<polygon class="st23" points="144.9,72.4 118.8,81.1 119.1,81.6 144.9,73.2 		"/>
		<polygon class="st24" points="144.9,73.2 119.1,81.6 119.4,82.3 144.9,73.7 		"/>
		<polygon class="st25" points="144.9,73.7 119.4,82.3 119.6,82.9 144.9,74.4 		"/>
		<polygon class="st26" points="144.9,74.4 119.6,82.9 119.9,83.6 144.9,75.2 		"/>
		<polygon class="st27" points="144.9,75.2 119.9,83.6 120.1,84.1 144.9,76 		"/>
		<polygon class="st28" points="144.9,76 120.1,84.1 120.4,84.9 144.9,76.5 		"/>
		<polygon class="st29" points="144.9,76.5 120.4,84.9 120.4,85.4 144.9,77.2 		"/>
		<polygon class="st30" points="144.9,77.2 120.4,85.4 120.6,86.2 144.9,78 		"/>
		<polygon class="st31" points="144.9,78 120.6,86.2 120.9,86.7 145.1,78.8 		"/>
		<polygon class="st32" points="145.1,78.8 120.9,86.7 121.1,87.2 145.1,79.3 		"/>
		<polygon class="st33" points="145.1,79.3 121.1,87.2 121.4,88 145.1,80.1 		"/>
		<polygon class="st34" points="145.1,80.1 121.4,88 121.6,88.5 145.1,80.8 		"/>
		<polygon class="st35" points="145.1,80.8 121.6,88.5 121.9,89.2 145.1,81.6 		"/>
		<polygon class="st36" points="145.1,81.6 121.9,89.2 122.2,89.7 145.1,82.1 		"/>
		<polygon class="st37" points="145.1,82.1 122.2,89.7 122.4,90.5 145.1,82.9 		"/>
		<polygon class="st38" points="145.1,82.9 122.4,90.5 122.7,91 145.1,83.6 		"/>
		<polygon class="st39" points="145.1,83.6 122.7,91 122.9,91.8 145.1,84.4 		"/>
		<polygon class="st40" points="145.1,84.4 122.9,91.8 123.2,92.3 145.1,84.9 		"/>
		<polygon class="st41" points="145.1,84.9 123.2,92.3 123.4,93.1 145.1,85.7 		"/>
		<polygon class="st42" points="145.1,85.7 123.4,93.1 123.7,93.6 145.1,86.4 		"/>
		<polygon class="st43" points="145.1,86.4 123.7,93.6 123.9,94.3 145.1,87.2 		"/>
		<polygon class="st44" points="145.1,87.2 123.9,94.3 124.2,94.8 145.1,87.7 		"/>
		<polygon class="st45" points="145.1,87.7 124.2,94.8 124.5,95.4 145.1,88.5 		"/>
		<polygon class="st46" points="145.1,88.5 124.5,95.4 124.7,96.1 145.4,89.2 		"/>
		<polygon class="st47" points="145.4,89.2 124.7,96.1 124.7,96.6 145.4,90 		"/>
		<polygon class="st48" points="145.4,90 124.7,96.6 125,97.4 145.4,90.5 		"/>
		<polygon class="st49" points="145.4,90.5 125,97.4 125.2,97.9 145.4,91.3 		"/>
		<polygon class="st50" points="145.4,91.3 125.2,97.9 125.5,98.7 145.4,92 		"/>
		<polygon class="st51" points="145.4,92 125.5,98.7 125.7,99.2 145.4,92.8 		"/>
		<polygon class="st52" points="145.4,92.8 125.7,99.2 126,99.9 145.4,93.3 		"/>
		<polygon class="st53" points="145.4,93.3 126,99.9 126.2,100.5 145.4,94.1 		"/>
		<polygon class="st54" points="145.4,94.1 126.2,100.5 126.5,101.2 145.4,94.8 		"/>
		<polygon class="st55" points="145.4,94.8 126.5,101.2 126.7,101.7 145.4,95.6 		"/>
		<polygon class="st56" points="145.4,95.6 126.7,101.7 127,102.5 145.4,96.1 		"/>
		<polygon class="st57" points="145.4,96.1 127,102.5 127.3,103 145.4,96.9 		"/>
		<polygon class="st58" points="145.4,96.9 127.3,103 127.5,103.5 145.4,97.6 		"/>
		<polygon class="st59" points="145.4,97.6 127.5,103.5 127.8,104.3 145.4,98.4 		"/>
		<polygon class="st60" points="145.4,98.4 127.8,104.3 128,104.8 145.6,98.9 		"/>
		<polygon class="st61" points="145.6,98.9 128,104.8 128.3,105.6 145.6,99.7 		"/>
		<polygon class="st62" points="145.6,99.7 128.3,105.6 128.5,106.1 145.6,100.5 		"/>
		<polygon class="st63" points="145.6,100.5 128.5,106.1 128.8,106.8 145.6,101.2 		"/>
		<polygon class="st64" points="145.6,101.2 128.8,106.8 129,107.3 145.6,101.7 		"/>
		<polygon class="st65" points="145.6,101.7 129,107.3 129,108.1 145.6,102.5 		"/>
		<polygon class="st66" points="145.6,102.5 129,108.1 129.3,108.6 145.6,103.3 		"/>
		<polygon class="st67" points="145.6,103.3 129.3,108.6 129.6,109.4 145.6,104 		"/>
		<polygon class="st68" points="145.6,104 129.6,109.4 129.8,109.9 145.6,104.8 		"/>
		<polygon class="st69" points="145.6,104.8 129.8,109.9 130.1,110.7 145.6,105.3 		"/>
		<polygon class="st70" points="145.6,105.3 130.1,110.7 130.3,111.2 145.6,106.1 		"/>
		<polygon class="st71" points="145.6,106.1 130.3,111.2 130.6,111.7 145.6,106.8 		"/>
		<polygon class="st72" points="145.6,106.8 130.6,111.7 130.8,112.4 145.6,107.6 		"/>
		<polygon class="st73" points="145.6,107.6 130.8,112.4 131.1,112.9 145.6,108.1 		"/>
		<polygon class="st74" points="145.6,108.1 131.1,112.9 131.3,113.7 145.6,108.9 		"/>
		<polygon class="st75" points="145.6,108.9 131.3,113.7 131.6,114.2 145.9,109.6 		"/>
		<polygon class="st76" points="145.9,109.6 131.6,114.2 131.8,115 145.9,110.4 		"/>
		<polygon class="st77" points="145.9,110.4 131.8,115 132.1,115.5 145.9,110.9 		"/>
		<polygon class="st78" points="145.9,110.9 132.1,115.5 132.4,116.3 145.9,111.7 		"/>
		<polygon class="st79" points="145.9,111.7 132.4,116.3 132.6,116.8 145.9,112.4 		"/>
		<polygon class="st80" points="145.9,112.4 132.6,116.8 132.9,117.5 145.9,113.2 		"/>
		<polygon class="st81" points="145.9,113.2 132.9,117.5 133.1,118.1 145.9,113.7 		"/>
		<polygon class="st82" points="145.9,113.7 133.1,118.1 133.4,118.8 145.9,114.5 		"/>
		<polygon class="st83" points="145.9,114.5 133.4,118.8 133.4,119.3 145.9,115.2 		"/>
		<polygon class="st84" points="145.9,115.2 133.4,119.3 133.6,119.8 145.9,116 		"/>
		<polygon class="st84" points="133.6,119.8 146.9,154 146.9,154 145.9,116 		"/>
	</g>
	<g>
		<path class="st2" d="M189.7,169.1c0-0.5-5.9-0.8-15.8-1l-20.9,2.6C174.7,170.3,189.7,169.8,189.7,169.1z"/>
		<path class="st2" d="M143.1,170.6c3.3,0,6.6,0,9.7,0l20.9-2.6c-2.3,0-4.8-0.3-7.4-0.3L143.1,170.6z"/>
		<path class="st3" d="M158.6,167.8l-24.7,3.1c3.3,0,6.4,0,9.4,0l23.2-2.8C164,167.8,161.4,167.8,158.6,167.8z"/>
		<path class="st4" d="M150.7,167.5l-26,3.1c3.1,0,6.1,0,9.2,0l24.7-3.1C156.1,167.5,153.3,167.5,150.7,167.5z"/>
		<path class="st5" d="M146.6,167.5l-0.3-0.5l-30.6,3.8c1.5,0,3.1,0,4.6,0c1.5,0,2.8,0,4.3,0l26-3.3
			C149.2,167.5,147.9,167.5,146.6,167.5z"/>
		<path class="st6" d="M146.1,166l-39,4.8c2.8,0,5.6,0,8.7,0l30.6-3.8L146.1,166z"/>
		<path class="st7" d="M145.6,165l-46.9,5.9c2.8,0,5.6,0,8.4,0l39-4.8L145.6,165z"/>
		<path class="st8" d="M145.4,164l-54.8,6.6c2.6,0,5.4,0,8.2,0l46.9-5.6L145.4,164z"/>
		<path class="st9" d="M144.9,162.9l-62.5,7.7c2.6,0,5.1,0,7.9,0l54.8-6.6L144.9,162.9z"/>
		<path class="st10" d="M144.6,161.7l-69.9,8.7c2.6,0,5.1,0,7.7,0.3l62.5-7.7L144.6,161.7z"/>
		<path class="st11" d="M144.3,160.6l-50,6.1v0.8c-2,0-4.1,0-5.9,0l-20.9,2.6c2.3,0,4.8,0,7.4,0.3l69.9-8.7L144.3,160.6z"/>
		<polygon class="st12" points="143.8,159.6 94.1,165.7 94.1,166.8 144.3,160.6 		"/>
		<path class="st12" d="M78,167.8l-17.6,2c2,0,4.3,0.3,6.9,0.3l20.9-2.6C84.7,167.5,81.1,167.8,78,167.8z"/>
		<path class="st13" d="M66.8,168l-12.8,1.5c1.5,0,3.6,0.3,6.1,0.3l17.6-2C74,167.8,70.1,168,66.8,168z"/>
		<polygon class="st13" points="143.6,158.6 94.4,164.7 94.1,165.7 143.8,159.6 		"/>
		<polygon class="st14" points="143.1,157.6 94.4,163.4 94.4,164.7 143.6,158.6 		"/>
		<path class="st14" d="M51.3,169.1c0,0.3,1,0.3,3.1,0.5l12.8-1.5C57.1,168.3,51.3,168.5,51.3,169.1z"/>
		<polygon class="st15" points="142.8,156.6 94.4,162.4 94.4,163.4 143.1,157.6 		"/>
		<polygon class="st16" points="142.3,155.5 94.4,161.4 94.4,162.4 142.8,156.6 		"/>
		<polygon class="st17" points="142,154.5 94.4,160.4 94.4,161.4 142.3,155.5 		"/>
		<polygon class="st18" points="141.8,153.5 94.6,159.1 94.4,160.4 142,154.5 		"/>
		<polygon class="st19" points="141.3,152.5 94.6,158.1 94.6,159.1 141.8,153.5 		"/>
		<polygon class="st20" points="141,151.2 94.6,157.1 94.6,158.1 141.3,152.5 		"/>
		<polygon class="st21" points="140.5,150.2 94.6,155.8 94.6,157.1 141,151.2 		"/>
		<polygon class="st22" points="140.3,149.2 94.9,154.8 94.6,155.8 140.5,150.2 		"/>
		<polygon class="st23" points="139.8,148.1 94.9,153.8 94.9,154.8 140.3,149.2 		"/>
		<polygon class="st24" points="139.5,147.1 94.9,152.7 94.9,153.8 139.8,148.1 		"/>
		<polygon class="st25" points="139.2,146.1 94.9,151.5 94.9,152.7 139.5,147.1 		"/>
		<polygon class="st26" points="138.7,145.1 95.1,150.4 94.9,151.5 139.2,146.1 		"/>
		<polygon class="st27" points="138.5,144.1 95.1,149.4 95.1,150.4 138.7,145.1 		"/>
		<polygon class="st28" points="138,143 95.1,148.1 95.1,149.4 138.5,144.1 		"/>
		<polygon class="st29" points="137.7,142 95.1,147.1 95.1,148.1 138,143 		"/>
		<polygon class="st30" points="137.2,141 95.4,146.1 95.1,147.1 137.7,142 		"/>
		<polygon class="st31" points="136.9,139.7 95.4,144.8 95.4,146.1 137.2,141 		"/>
		<polygon class="st32" points="136.7,138.7 95.4,143.8 95.4,144.8 136.9,139.7 		"/>
		<polygon class="st33" points="136.2,137.7 95.4,142.8 95.4,143.8 136.7,138.7 		"/>
		<polygon class="st34" points="135.9,136.7 95.6,141.8 95.4,142.8 136.2,137.7 		"/>
		<polygon class="st35" points="135.4,135.6 95.6,140.5 95.6,141.8 135.9,136.7 		"/>
		<polygon class="st36" points="135.2,134.6 95.6,139.5 95.6,140.5 135.4,135.6 		"/>
		<polygon class="st37" points="134.9,133.6 95.6,138.5 95.6,139.5 135.2,134.6 		"/>
		<polygon class="st38" points="134.4,132.6 95.6,137.2 95.6,138.5 134.9,133.6 		"/>
		<polygon class="st39" points="134.1,131.6 95.9,136.2 95.6,137.2 134.4,132.6 		"/>
		<polygon class="st40" points="133.6,130.5 95.9,135.1 95.9,136.2 134.1,131.6 		"/>
		<polygon class="st41" points="133.4,129.3 95.9,133.9 95.9,135.1 133.6,130.5 		"/>
		<polygon class="st42" points="132.9,128.3 95.9,132.8 95.9,133.9 133.4,129.3 		"/>
		<polygon class="st43" points="132.6,127.2 96.1,131.8 95.9,132.8 132.9,128.3 		"/>
		<polygon class="st44" points="132.4,126.2 96.1,130.8 96.1,131.8 132.6,127.2 		"/>
		<polygon class="st45" points="131.8,125.2 96.1,129.5 96.1,130.8 132.4,126.2 		"/>
		<polygon class="st46" points="131.6,124.2 96.1,128.5 96.1,129.5 131.8,125.2 		"/>
		<polygon class="st47" points="131.1,123.2 96.4,127.5 96.1,128.5 131.6,124.2 		"/>
		<polygon class="st48" points="130.8,122.1 96.4,126.2 96.4,127.5 131.1,123.2 		"/>
		<polygon class="st49" points="130.3,121.1 96.4,125.2 96.4,126.2 130.8,122.1 		"/>
		<polygon class="st50" points="130.1,120.1 96.4,124.2 96.4,125.2 130.3,121.1 		"/>
		<polygon class="st51" points="129.8,118.8 96.7,122.9 96.4,124.2 130.1,120.1 		"/>
		<polygon class="st52" points="129.3,117.8 96.7,121.9 96.7,122.9 129.8,118.8 		"/>
		<polygon class="st53" points="129,116.8 96.7,120.9 96.7,121.9 129.3,117.8 		"/>
		<polygon class="st54" points="128.5,115.8 96.7,119.8 96.7,120.9 129,116.8 		"/>
		<polygon class="st55" points="128.3,114.7 96.7,118.6 96.7,119.8 128.5,115.8 		"/>
		<polygon class="st56" points="127.8,113.7 96.9,117.5 96.7,118.6 128.3,114.7 		"/>
		<polygon class="st57" points="127.5,112.7 96.9,116.5 96.9,117.5 127.8,113.7 		"/>
		<polygon class="st58" points="127.3,111.7 96.9,115.2 96.9,116.5 127.5,112.7 		"/>
		<polygon class="st59" points="126.7,110.7 96.9,114.2 96.9,115.2 127.3,111.7 		"/>
		<polygon class="st60" points="126.5,109.6 97.2,113.2 96.9,114.2 126.7,110.7 		"/>
		<polygon class="st61" points="126,108.6 97.2,111.9 97.2,113.2 126.5,109.6 		"/>
		<polygon class="st62" points="125.7,107.3 97.2,110.9 97.2,111.9 126,108.6 		"/>
		<polygon class="st63" points="125.5,106.3 97.2,109.9 97.2,110.9 125.7,107.3 		"/>
		<polygon class="st64" points="125,105.3 97.4,108.9 97.2,109.9 125.5,106.3 		"/>
		<polygon class="st65" points="124.7,104.3 97.4,107.6 97.4,108.9 125,105.3 		"/>
		<polygon class="st66" points="124.2,103.3 97.4,106.6 97.4,107.6 124.7,104.3 		"/>
		<polygon class="st67" points="123.9,102.2 97.4,105.6 97.4,106.6 124.2,103.3 		"/>
		<polygon class="st68" points="123.4,101.2 97.7,104.3 97.4,105.6 123.9,102.2 		"/>
		<polygon class="st69" points="123.2,100.2 97.7,103.3 97.7,104.3 123.4,101.2 		"/>
		<polygon class="st70" points="122.9,99.2 97.7,102.2 97.7,103.3 123.2,100.2 		"/>
		<polygon class="st71" points="122.4,98.2 97.7,101 97.7,102.2 122.9,99.2 		"/>
		<polygon class="st72" points="122.2,96.9 97.7,99.9 97.7,101 122.4,98.2 		"/>
		<polygon class="st73" points="121.6,95.9 97.9,98.9 97.7,99.9 122.2,96.9 		"/>
		<polygon class="st74" points="121.4,94.8 97.9,97.9 97.9,98.9 121.6,95.9 		"/>
		<polygon class="st75" points="120.9,93.8 97.9,96.6 97.9,97.9 121.4,94.8 		"/>
		<polygon class="st76" points="120.6,92.8 97.9,95.6 97.9,96.6 120.9,93.8 		"/>
		<polygon class="st77" points="120.4,91.8 98.2,94.6 97.9,95.6 120.6,92.8 		"/>
		<polygon class="st78" points="119.9,90.8 98.2,93.3 98.2,94.6 120.4,91.8 		"/>
		<polygon class="st79" points="119.6,89.7 98.2,92.3 98.2,93.3 119.9,90.8 		"/>
		<polygon class="st80" points="119.1,88.7 98.2,91.3 98.2,92.3 119.6,89.7 		"/>
		<polygon class="st81" points="118.8,87.7 98.4,90 98.2,91.3 119.1,88.7 		"/>
		<polygon class="st82" points="118.3,86.7 98.4,89 98.4,90 118.8,87.7 		"/>
		<polygon class="st83" points="118.1,85.4 98.4,88 98.4,89 118.3,86.7 		"/>
		<polygon class="st84" points="117.8,84.4 98.4,86.9 98.4,88 118.1,85.4 		"/>
		<polygon class="st84" points="101.2,37.2 98.4,86.9 117.8,84.4 		"/>
	</g>
	<g>
		<path class="st85" d="M98.2,34.1C98.2,34.1,98.4,34.1,98.2,34.1C98.4,34.1,98.4,34.1,98.2,34.1c0.3,0,0.3,0,0.3,0l0,0l0,0l0,0l0,0
			l0,0l0,0l0,0l0,0l0,0l0,0l0,0l0,0l0,0l0,0l0,0l0,0l0,0l0,0l0,0l0,0l0,0l0,0l0,0l0,0l0,0l0,0l0,0l0,0l0,0l0,0l0,0c0,0,0,0,0-0.3
			v-0.3v-0.3v-0.3v-0.3l0,0c0-0.3,0-0.3,0-0.5s0-0.5,0-0.8v-0.3v-0.3l0,0l0,0l0,0l0,0l0,0l0,0l0,0l0,0l0,0l0,0l0,0l0,0l0,0l0,0l0,0
			l0,0l0,0l0,0l0,0l0,0l0,0l0,0l0,0l0,0l0,0l0,0l0,0l0,0l0,0v0.3v0.3v0.3v0.3v0.3v0.3v0.3v0.3v0.3v0.3v0.3v0.3v0.3v0.3l0,0l0,0
			C97.9,33.9,98.2,33.9,98.2,34.1C98.2,33.9,98.2,33.9,98.2,34.1L98.2,34.1L98.2,34.1z"/>
		<path class="st62" d="M97.9,33.9v1.5l0,0V33.9C98.2,33.9,97.9,33.9,97.9,33.9z"/>
		<path class="st59" d="M98.2,34.1v1.5l0,0V34.1C98.4,34.1,98.2,34.1,98.2,34.1z"/>
		<path class="st51" d="M99,33.9v1.3l0,0V33.9C99.2,33.9,99,33.9,99,33.9z"/>
		<path class="st48" d="M99.2,33.9v1.3l0,0V33.9C99.5,33.9,99.5,33.9,99.2,33.9z"/>
		<path class="st46" d="M99.7,29.3v-1.5l0,0V29.3C99.5,29.3,99.5,29.3,99.7,29.3z"/>
		<path class="st43" d="M100,29.3v-1.5l0,0V29.3C99.7,29.3,99.7,29.3,100,29.3z"/>
		<path class="st40" d="M100,33.6v1.5l0,0V33.6C100.2,33.6,100,33.6,100,33.6z"/>
		<path class="st40" d="M100.2,29.3v-1.5l0,0V29.3C100,29.3,100.2,29.3,100.2,29.3z"/>
		<path class="st37" d="M100.2,33.6v1.5l0,0V33.6C100.5,33.6,100.5,33.6,100.2,33.6z"/>
		<path class="st35" d="M100.7,29.3v-1.5l0,0V29.3C100.5,29.3,100.5,29.3,100.7,29.3z"/>
		<path class="st32" d="M101,29.3v-1.5l0,0V29.3C100.7,29.3,101,29.3,101,29.3z"/>
		<path class="st32" d="M100.7,33.1v1.5l0,0V33.1C101,33.1,100.7,33.1,100.7,33.1z"/>
		<path class="st29" d="M101,32.9v1.8l0,0V32.9C101.2,32.9,101,32.9,101,32.9z"/>
		<path class="st26" d="M101.2,32.6v2l0,0V32.6C101.5,32.4,101.5,32.6,101.2,32.6z"/>
		<path class="st24" d="M101.8,29.8V28l0,0V29.8C101.5,29.8,101.5,29.8,101.8,29.8z"/>
		<path class="st13" d="M102.8,33.4v-5.1l0,0V33.4C102.5,33.4,102.5,33.4,102.8,33.4z"/>
		<path class="st10" d="M103,32.9v-4.3l0,0V32.9C102.8,32.9,103,32.9,103,32.9z"/>
		<path class="st5" d="M103.5,31.9v-2.6c0,0,0,0,0-0.3V31.9C103.3,31.9,103.3,31.9,103.5,31.9z"/>
		<path class="st2" d="M103.8,29.8C103.5,29.8,103.5,29.8,103.8,29.8v1C103.8,30.6,103.8,30.3,103.8,29.8z"/>
	</g>
	<g>
		<path class="st85" d="M102,34.7L102,34.7L102,34.7L102,34.7L102,34.7C102.3,34.7,102.3,34.7,102,34.7c0.3,0,0.3,0,0.3,0l0,0l0,0
			l0,0l0,0l0,0l0,0l0,0l0,0l0,0l0,0l0,0l0,0l0,0l0,0l0,0l0,0l0,0l0,0l0,0l0,0l0,0l0,0l0,0l0,0l0,0l0,0l0,0l0,0l0,0l0,0l0,0l0,0l0,0
			l0,0v-0.3c0-0.3,0-0.3,0-0.5c0,0,0,0,0-0.3l0,0l0,0l0,0l0,0l0,0l0,0l0,0l0,0l0,0l0,0l0,0l0,0l0,0l0,0l0,0l0,0l0,0l0,0l0,0l0,0l0,0
			l0,0l0,0l0,0l0,0l0,0l0,0l0,0l0,0l0,0v0.3v0.3v0.3v0.3v0.3v0.3v0.3v0.3v0.3v0.3v0.3v0.3L102,34.7L102,34.7L102,34.7
			C101.8,34.7,101.8,34.7,102,34.7C101.8,34.7,101.8,34.7,102,34.7C101.8,34.7,102,34.7,102,34.7L102,34.7L102,34.7z"/>
		<path class="st61" d="M102,34.7C102,34.7,101.8,34.7,102,34.7v0.8l0,0l0,0V34.7z"/>
		<path class="st56" d="M102.3,34.7C102,34.7,102,34.7,102.3,34.7v0.8l0,0V34.7L102.3,34.7z"/>
		<path class="st51" d="M102.3,34.7v0.8l0,0V34.7C102.5,34.7,102.3,34.7,102.3,34.7z"/>
		<path class="st46" d="M102.5,34.7v0.8l0,0V34.7C102.8,34.7,102.5,34.7,102.5,34.7z"/>
		<path class="st46" d="M102.8,32.1v-0.8l0,0V32.1C102.5,32.1,102.8,32.1,102.8,32.1z"/>
		<path class="st41" d="M102.8,34.7v0.8l0,0l0,0V34.7C103,34.4,102.8,34.4,102.8,34.7z"/>
		<path class="st41" d="M102.8,32.1C103,32.1,103,32.1,102.8,32.1v-0.8l0,0V32.1L102.8,32.1z"/>
		<path class="st36" d="M103.3,32.1v-0.8l0,0V32.1C103,32.1,103.3,32.1,103.3,32.1z"/>
		<path class="st36" d="M103,34.4v0.8l0,0V34.4C103.3,34.4,103,34.4,103,34.4z"/>
		<path class="st31" d="M103.3,34.1v1l0,0V34.1C103.5,34.1,103.3,34.1,103.3,34.1z"/>
		<path class="st31" d="M103.5,32.1v-0.8l0,0V32.1C103.3,32.1,103.5,32.1,103.5,32.1z"/>
		<path class="st26" d="M103.8,32.4v-1l0,0V32.4C103.5,32.4,103.8,32.4,103.8,32.4z"/>
		<path class="st26" d="M103.5,33.6v1.3l0,0V33.6C103.8,33.6,103.5,33.6,103.5,33.6z"/>
		<path class="st16" d="M104.3,34.4v-3.1l0,0V34.4C104.1,34.4,104.3,34.4,104.3,34.4z"/>
		<path class="st11" d="M104.6,34.1v-2.6l0,0V34.1C104.3,34.1,104.6,34.1,104.6,34.1z"/>
		<path class="st6" d="M104.8,33.6v-1.5l0,0V33.6C104.6,33.6,104.8,33.6,104.8,33.6z"/>
	</g>
</g>
</svg>
