<?xml version="1.0" encoding="utf-8"?>
<!-- Generator: Adobe Illustrator 24.0.1, SVG Export Plug-In . SVG Version: 6.00 Build 0)  -->
<svg version="1.1" id="Layer_1" xmlns="http://www.w3.org/2000/svg" xmlns:xlink="http://www.w3.org/1999/xlink" x="0px" y="0px"
	 viewBox="0 0 595.28 595.28" style="enable-background:new 0 0 595.28 595.28;" xml:space="preserve">
<style type="text/css">
	.st0{display:none;fill:#0A162D;}
	.st1{fill:#D6AB5D;}
	.st2{clip-path:url(#SVGID_2_);fill:url(#SVGID_3_);}
	.st3{clip-path:url(#SVGID_5_);fill:url(#SVGID_6_);}
	.st4{clip-path:url(#SVGID_8_);fill:url(#SVGID_9_);}
	.st5{clip-path:url(#SVGID_11_);fill:url(#SVGID_12_);}
</style>
<rect x="-1.41" y="0" class="st0" width="596.69" height="595.28"/>
<g>
	<path class="st1" d="M141.75,392.46h7.35c4.81,0,7.18,2.67,7.18,7.57v15.49c0,4.9-2.36,7.57-7.18,7.57h-7.35V392.46z
		 M149.01,418.71c1.53,0,2.45-0.79,2.45-2.97v-15.93c0-2.19-0.92-2.97-2.45-2.97h-2.45v21.87H149.01z"/>
	<polygon class="st1" points="159.51,392.46 164.32,392.46 164.32,404.93 169.49,404.93 169.49,392.46 174.3,392.46 174.3,423.08 
		169.49,423.08 169.49,409.3 164.32,409.3 164.32,423.08 159.51,423.08 	"/>
	<path class="st1" d="M181.6,392.46h6.52l4.99,30.62h-4.81l-0.87-6.08v0.09h-5.47l-0.87,5.99h-4.46L181.6,392.46z M186.85,412.93
		l-2.14-15.14h-0.09l-2.1,15.14H186.85z"/>
	<path class="st1" d="M195.43,392.46h7.26c4.99,0,7.13,2.32,7.13,7.04v1.22c0,3.15-0.96,5.12-3.11,5.99v0.09
		c2.58,0.87,3.59,3.15,3.59,6.39v2.62c0,4.72-2.49,7.26-7.31,7.26h-7.57V392.46z M202.12,404.93c1.79,0,2.89-0.79,2.89-3.24v-1.71
		c0-2.19-0.74-3.15-2.45-3.15h-2.32v8.09H202.12z M202.99,418.71c1.62,0,2.49-0.74,2.49-3.02v-2.67c0-2.84-0.92-3.72-3.11-3.72
		h-2.14v9.41H202.99z"/>
	<rect x="213.1" y="392.46" class="st1" width="4.81" height="30.62"/>
	<path class="st1" d="M228.49,392.46h7.35c4.81,0,7.18,2.67,7.18,7.57v15.49c0,4.9-2.36,7.57-7.18,7.57h-7.35V392.46z
		 M235.76,418.71c1.53,0,2.45-0.79,2.45-2.97v-15.93c0-2.19-0.92-2.97-2.45-2.97h-2.45v21.87H235.76z"/>
	<polygon class="st1" points="246.25,392.46 259.38,392.46 259.38,396.83 251.07,396.83 251.07,404.93 257.67,404.93 257.67,409.3 
		251.07,409.3 251.07,418.71 259.38,418.71 259.38,423.08 246.25,423.08 	"/>
	<polygon class="st1" points="260.86,392.46 265.72,392.46 268.87,416.22 268.96,416.22 272.11,392.46 276.52,392.46 271.89,423.08 
		265.5,423.08 	"/>
	<polygon class="st1" points="278.84,392.46 291.97,392.46 291.97,396.83 283.65,396.83 283.65,404.93 290.26,404.93 290.26,409.3 
		283.65,409.3 283.65,418.71 291.97,418.71 291.97,423.08 278.84,423.08 	"/>
	<polygon class="st1" points="294.72,392.46 299.53,392.46 299.53,418.71 307.45,418.71 307.45,423.08 294.72,423.08 	"/>
	<path class="st1" d="M309.24,415.82v-16.1c0-4.9,2.58-7.7,7.31-7.7c4.73,0,7.31,2.8,7.31,7.7v16.1c0,4.9-2.58,7.7-7.31,7.7
		C311.82,423.52,309.24,420.72,309.24,415.82 M319.04,416.13v-16.71c0-2.19-0.96-3.02-2.49-3.02c-1.53,0-2.49,0.83-2.49,3.02v16.71
		c0,2.19,0.96,3.02,2.49,3.02C318.08,419.15,319.04,418.32,319.04,416.13"/>
	<path class="st1" d="M327.09,392.46h7.09c4.81,0,7.18,2.67,7.18,7.57v3.02c0,4.9-2.36,7.57-7.18,7.57h-2.27v12.47h-4.81V392.46z
		 M334.18,406.24c1.53,0,2.36-0.7,2.36-2.89v-3.63c0-2.19-0.83-2.89-2.36-2.89h-2.27v9.41H334.18z"/>
	<polygon class="st1" points="343.98,392.46 357.1,392.46 357.1,396.83 348.79,396.83 348.79,404.93 355.39,404.93 355.39,409.3 
		348.79,409.3 348.79,418.71 357.1,418.71 357.1,423.08 343.98,423.08 	"/>
	<path class="st1" d="M359.85,392.46h7.13c4.99,0,7.13,2.32,7.13,7.04v1.88c0,3.15-1.01,5.16-3.15,6.04v0.09
		c2.41,0.74,3.19,3.02,3.19,6.47v5.38c0,1.49,0.04,2.58,0.53,3.72h-4.9c-0.26-0.79-0.44-1.27-0.44-3.76v-5.6
		c0-2.84-0.83-3.76-3.02-3.76h-1.66v13.12h-4.81V392.46z M366.42,405.58c1.79,0,2.89-0.79,2.89-3.24v-2.36
		c0-2.19-0.74-3.15-2.45-3.15h-2.19v8.75H366.42z"/>
	<path class="st1" d="M376.65,415.82v-1.75h4.55v2.1c0,2.19,0.96,2.97,2.49,2.97c1.53,0,2.49-0.79,2.49-3.06
		c0-2.54-0.96-4.16-4.11-6.91c-4.03-3.54-5.34-6.04-5.34-9.54c0-4.81,2.49-7.61,7.17-7.61c4.68,0,7,2.8,7,7.7v1.27h-4.55v-1.57
		c0-2.19-0.88-3.02-2.41-3.02c-1.53,0-2.4,0.83-2.4,2.93c0,2.23,1.01,3.85,4.15,6.61c4.03,3.54,5.29,6,5.29,9.8
		c0,4.99-2.54,7.79-7.26,7.79C379.01,423.52,376.65,420.72,376.65,415.82"/>
	<path class="st1" d="M404.47,392.46h6.52l4.99,30.62h-4.81l-0.87-6.08v0.09h-5.47l-0.87,5.99h-4.46L404.47,392.46z M409.72,412.93
		l-2.14-15.14h-0.09l-2.1,15.14H409.72z"/>
	<polygon class="st1" points="418.29,392.46 424.33,392.46 429.01,410.79 429.1,410.79 429.1,392.46 433.39,392.46 433.39,423.08 
		428.44,423.08 422.67,400.73 422.58,400.73 422.58,423.08 418.29,423.08 	"/>
	<path class="st1" d="M436.97,392.46h7.35c4.81,0,7.17,2.67,7.17,7.57v15.49c0,4.9-2.36,7.57-7.17,7.57h-7.35V392.46z
		 M444.24,418.71c1.53,0,2.45-0.79,2.45-2.97v-15.93c0-2.19-0.92-2.97-2.45-2.97h-2.45v21.87H444.24z"/>
	<path class="st1" d="M107.83,431.7h7.09c4.81,0,7.18,2.67,7.18,7.57v3.02c0,4.9-2.36,7.57-7.18,7.57h-2.28v12.47h-4.81V431.7z
		 M114.92,445.48c1.53,0,2.36-0.7,2.36-2.89v-3.63c0-2.19-0.83-2.89-2.36-2.89h-2.28v9.41H114.92z"/>
	<path class="st1" d="M124.71,431.7h7.13c4.99,0,7.13,2.32,7.13,7.04v1.88c0,3.15-1.01,5.16-3.15,6.04v0.09
		c2.41,0.74,3.19,3.02,3.19,6.48v5.38c0,1.49,0.04,2.58,0.52,3.72h-4.9c-0.26-0.79-0.44-1.27-0.44-3.76v-5.6
		c0-2.84-0.83-3.76-3.02-3.76h-1.66v13.12h-4.81V431.7z M131.28,444.82c1.79,0,2.89-0.79,2.89-3.24v-2.36
		c0-2.19-0.74-3.15-2.45-3.15h-2.19v8.75H131.28z"/>
	<path class="st1" d="M141.99,455.06v-16.1c0-4.9,2.58-7.7,7.3-7.7c4.73,0,7.31,2.8,7.31,7.7v16.1c0,4.9-2.58,7.7-7.31,7.7
		C144.57,462.76,141.99,459.96,141.99,455.06 M151.79,455.36v-16.71c0-2.19-0.96-3.02-2.49-3.02c-1.53,0-2.49,0.83-2.49,3.02v16.71
		c0,2.19,0.96,3.02,2.49,3.02C150.83,458.38,151.79,457.55,151.79,455.36"/>
	<path class="st1" d="M159.84,431.7h7.09c4.81,0,7.18,2.67,7.18,7.57v3.02c0,4.9-2.36,7.57-7.18,7.57h-2.28v12.47h-4.81V431.7z
		 M166.93,445.48c1.53,0,2.36-0.7,2.36-2.89v-3.63c0-2.19-0.83-2.89-2.36-2.89h-2.28v9.41H166.93z"/>
	<polygon class="st1" points="176.72,431.7 189.85,431.7 189.85,436.07 181.54,436.07 181.54,444.16 188.14,444.16 188.14,448.54 
		181.54,448.54 181.54,457.94 189.85,457.94 189.85,462.32 176.72,462.32 	"/>
	<path class="st1" d="M192.6,431.7h7.13c4.99,0,7.13,2.32,7.13,7.04v1.88c0,3.15-1.01,5.16-3.15,6.04v0.09
		c2.41,0.74,3.19,3.02,3.19,6.48v5.38c0,1.49,0.04,2.58,0.53,3.72h-4.9c-0.26-0.79-0.44-1.27-0.44-3.76v-5.6
		c0-2.84-0.83-3.76-3.02-3.76h-1.66v13.12h-4.81V431.7z M199.17,444.82c1.79,0,2.89-0.79,2.89-3.24v-2.36
		c0-2.19-0.74-3.15-2.45-3.15h-2.19v8.75H199.17z"/>
	<polygon class="st1" points="213.91,436.07 208.88,436.07 208.88,431.7 223.75,431.7 223.75,436.07 218.72,436.07 218.72,462.32 
		213.91,462.32 	"/>
	<polygon class="st1" points="230.66,449.28 224.84,431.69 229.96,431.69 233.24,442.94 233.33,442.94 236.61,431.69 241.29,431.69 
		235.47,449.28 235.47,462.32 230.66,462.32 	"/>
	<polygon class="st1" points="250.48,431.7 257.34,431.7 260.41,453.61 260.49,453.61 263.56,431.7 270.42,431.7 270.42,462.32 
		265.88,462.32 265.88,439.13 265.79,439.13 262.29,462.32 258.26,462.32 254.76,439.13 254.68,439.13 254.68,462.32 250.48,462.32 
			"/>
	<path class="st1" d="M277.73,431.69h6.52l4.99,30.62h-4.81l-0.88-6.08v0.09h-5.47l-0.87,5.99h-4.46L277.73,431.69z M282.98,452.17
		l-2.14-15.14h-0.09l-2.1,15.14H282.98z"/>
	<polygon class="st1" points="291.55,431.7 297.59,431.7 302.27,450.03 302.36,450.03 302.36,431.7 306.64,431.7 306.64,462.32 
		301.7,462.32 295.93,439.96 295.84,439.96 295.84,462.32 291.55,462.32 	"/>
	<path class="st1" d="M313.95,431.69h6.52l4.99,30.62h-4.81l-0.87-6.08v0.09h-5.47l-0.87,5.99h-4.46L313.95,431.69z M319.2,452.17
		l-2.14-15.14h-0.09l-2.1,15.14H319.2z"/>
	<path class="st1" d="M327.33,455.06v-16.1c0-4.9,2.45-7.7,7.18-7.7c4.72,0,7.17,2.8,7.17,7.7v2.62h-4.55v-2.93
		c0-2.19-0.96-3.02-2.5-3.02c-1.53,0-2.49,0.83-2.49,3.02v16.76c0,2.19,0.96,2.97,2.49,2.97c1.53,0,2.5-0.79,2.5-2.97v-5.99h-2.41
		v-4.37h6.96v10.02c0,4.9-2.45,7.7-7.17,7.7C329.78,462.76,327.33,459.96,327.33,455.06"/>
	<polygon class="st1" points="344.78,431.7 357.91,431.7 357.91,436.07 349.6,436.07 349.6,444.16 356.2,444.16 356.2,448.54 
		349.6,448.54 349.6,457.94 357.91,457.94 357.91,462.32 344.78,462.32 	"/>
	<polygon class="st1" points="360.66,431.7 367.53,431.7 370.59,453.61 370.68,453.61 373.74,431.7 380.61,431.7 380.61,462.32 
		376.06,462.32 376.06,439.13 375.98,439.13 372.48,462.32 368.45,462.32 364.95,439.13 364.86,439.13 364.86,462.32 360.66,462.32 
			"/>
	<polygon class="st1" points="384.2,431.7 397.32,431.7 397.32,436.07 389.01,436.07 389.01,444.16 395.62,444.16 395.62,448.54 
		389.01,448.54 389.01,457.94 397.32,457.94 397.32,462.32 384.2,462.32 	"/>
	<polygon class="st1" points="400.08,431.7 406.11,431.7 410.79,450.03 410.88,450.03 410.88,431.7 415.17,431.7 415.17,462.32 
		410.23,462.32 404.45,439.96 404.36,439.96 404.36,462.32 400.08,462.32 	"/>
	<polygon class="st1" points="422.52,436.07 417.49,436.07 417.49,431.7 432.36,431.7 432.36,436.07 427.33,436.07 427.33,462.32 
		422.52,462.32 	"/>
	<polygon class="st1" points="441.68,431.7 446.49,431.7 446.49,457.94 454.41,457.94 454.41,462.32 441.68,462.32 	"/>
	<polygon class="st1" points="456.72,431.7 461.54,431.7 461.54,457.94 469.45,457.94 469.45,462.32 456.72,462.32 	"/>
	<path class="st1" d="M471.77,431.7h7.09c4.81,0,7.18,2.67,7.18,7.57v3.02c0,4.9-2.36,7.57-7.18,7.57h-2.28v12.47h-4.81V431.7z
		 M478.86,445.48c1.53,0,2.36-0.7,2.36-2.89v-3.63c0-2.19-0.83-2.89-2.36-2.89h-2.28v9.41H478.86z"/>
	<g>
		<defs>
			<polygon id="SVGID_1_" points="343.35,354.52 339.73,208.46 264.1,148 			"/>
		</defs>
		<clipPath id="SVGID_2_">
			<use xlink:href="#SVGID_1_"  style="overflow:visible;"/>
		</clipPath>
		
			<linearGradient id="SVGID_3_" gradientUnits="userSpaceOnUse" x1="3.9503" y1="-2.4083" x2="4.6296" y2="-2.4083" gradientTransform="matrix(45.6062 136.8185 136.8185 -45.6062 436.6943 -448.1561)">
			<stop  offset="0" style="stop-color:#D9B85F"/>
			<stop  offset="0.401" style="stop-color:#B69548"/>
			<stop  offset="1" style="stop-color:#7C5922"/>
		</linearGradient>
		<polygon class="st2" points="335.43,124.23 405.31,333.87 272.02,378.3 202.14,168.65 		"/>
	</g>
	<g>
		<defs>
			<path id="SVGID_4_" d="M250.58,378.07c-44.17,0.44-75.25,1.49-75.25,2.72c0,1.62,54.44,2.94,121.6,2.94
				c67.16,0,121.6-1.32,121.6-2.94c0-1.23-31.28-2.29-75.66-2.73l-79.69-229.27L250.58,378.07z"/>
		</defs>
		<clipPath id="SVGID_5_">
			<use xlink:href="#SVGID_4_"  style="overflow:visible;"/>
		</clipPath>
		
			<linearGradient id="SVGID_6_" gradientUnits="userSpaceOnUse" x1="-2.293" y1="0.7613" x2="-1.6136" y2="0.7613" gradientTransform="matrix(-28.2175 -230.4432 -230.4432 28.2175 422.6476 -161.3348)">
			<stop  offset="0" style="stop-color:#D9B85F"/>
			<stop  offset="0.401" style="stop-color:#B69548"/>
			<stop  offset="1" style="stop-color:#7C5922"/>
		</linearGradient>
		<polygon class="st3" points="178.92,413.07 146.99,152.27 414.94,119.45 446.88,380.26 		"/>
	</g>
	<g>
		<defs>
			<path id="SVGID_7_" d="M257.9,143.39c-0.18-0.01-0.34-0.01-0.47-0.03l2.32-8.27c0.2-0.03,0.4-0.04,0.62-0.05
				c0.22-0.01,0.42-0.01,0.63-0.01c1.47,0,2.45,0.35,2.93,1.06c0.48,0.71,0.53,1.74,0.14,3.12c-0.37,1.31-1.01,2.33-1.93,3.08
				c-0.92,0.74-2.12,1.11-3.59,1.11C258.3,143.4,258.08,143.4,257.9,143.39 M259.63,132.59c-0.75,0.04-1.48,0.13-2.2,0.25
				l-3.58,12.75c0.64,0.14,1.31,0.23,2,0.27c0.69,0.04,1.3,0.07,1.83,0.07c1.16,0,2.24-0.14,3.25-0.42
				c1.01-0.28,1.92-0.69,2.72-1.25c0.8-0.55,1.5-1.25,2.09-2.1c0.59-0.84,1.04-1.83,1.36-2.96c0.33-1.18,0.44-2.2,0.33-3.04
				c-0.12-0.85-0.42-1.54-0.93-2.08c-0.5-0.54-1.17-0.94-2.02-1.19c-0.84-0.25-1.82-0.38-2.94-0.38
				C261.02,132.52,260.38,132.54,259.63,132.59"/>
		</defs>
		<clipPath id="SVGID_8_">
			<use xlink:href="#SVGID_7_"  style="overflow:visible;"/>
		</clipPath>
		
			<linearGradient id="SVGID_9_" gradientUnits="userSpaceOnUse" x1="-5.1687" y1="-33.4031" x2="-4.4893" y2="-33.4031" gradientTransform="matrix(20.0595 0 0 -20.0595 357.5376 -530.8275)">
			<stop  offset="0" style="stop-color:#7C5922"/>
			<stop  offset="0.599" style="stop-color:#B69548"/>
			<stop  offset="1" style="stop-color:#D9B85F"/>
		</linearGradient>
		<rect x="253.86" y="132.52" class="st4" width="13.7" height="13.41"/>
	</g>
	<g>
		<defs>
			<path id="SVGID_10_" d="M264.38,144.54c-0.1,0-0.19-0.01-0.26-0.02l1.27-4.53c0.11-0.01,0.22-0.02,0.34-0.03
				c0.12,0,0.23,0,0.34,0c0.81,0,1.34,0.19,1.6,0.58c0.26,0.39,0.29,0.96,0.08,1.71c-0.2,0.72-0.55,1.28-1.06,1.68
				c-0.5,0.41-1.16,0.61-1.97,0.61C264.6,144.54,264.48,144.54,264.38,144.54 M265.33,138.62c-0.41,0.02-0.81,0.07-1.2,0.14
				l-1.96,6.98c0.35,0.07,0.72,0.12,1.1,0.15c0.38,0.02,0.71,0.04,1,0.04c0.63,0,1.23-0.08,1.78-0.23c0.55-0.15,1.05-0.38,1.49-0.68
				c0.44-0.3,0.82-0.68,1.14-1.15c0.32-0.46,0.57-1,0.75-1.62c0.18-0.65,0.24-1.2,0.18-1.66c-0.06-0.46-0.23-0.84-0.51-1.14
				c-0.28-0.3-0.64-0.51-1.1-0.65c-0.46-0.14-1-0.21-1.61-0.21C266.09,138.59,265.74,138.6,265.33,138.62"/>
		</defs>
		<clipPath id="SVGID_11_">
			<use xlink:href="#SVGID_10_"  style="overflow:visible;"/>
		</clipPath>
		
			<linearGradient id="SVGID_12_" gradientUnits="userSpaceOnUse" x1="-9.799" y1="-60.8879" x2="-9.1197" y2="-60.8879" gradientTransform="matrix(10.9812 0 0 -10.9812 369.7732 -526.3611)">
			<stop  offset="0" style="stop-color:#7C5922"/>
			<stop  offset="0.599" style="stop-color:#B69548"/>
			<stop  offset="1" style="stop-color:#D9B85F"/>
		</linearGradient>
		<rect x="262.17" y="138.59" class="st5" width="7.5" height="7.34"/>
	</g>
</g>
</svg>
